# xmcd CD database file
#
# Track frame offsets:
#	150
#	4022
#	26747
#	52012
#
# Disc length: 801 seconds
#
# Revision: 0
# Processed by: cddbd v1.5.1PL0 Copyright (c) Steve Scherf et al.
# Submitted via: CDex 1.50
#
DISCID=2a031f04
DTITLE=及川光博 - 死んでもいい'98
DYEAR=1998
DGENRE=JPop
TTITLE0=背徳王子のテーマ
TTITLE1=死んでもいい'98
TTITLE2=ワルイコトシタイ (I LOVE N.Y.)
TTITLE3=背徳王子のテーマ リターンズ
EXTD=YEAR: 1998.5.27
EXTT0=
EXTT1=
EXTT2=
EXTT3=
PLAYORDER=
